<svg width="208" height="68" viewBox="0 0 208 68" fill="none" xmlns="http://www.w3.org/2000/svg">
<g filter="url(#filter0_d_112_53)">
<rect x="4" width="200" height="60" rx="16" fill="#DF5C44"/>
<path d="M75.9 26.62H83.38V28.84H75.9V26.62ZM65.06 22H74.08V23.94H65.06V22ZM64.88 29.96H74.06V31.98H64.88V29.96ZM64.82 26.46H74.24V28.42H64.82V26.46ZM79.14 27.6H81.48V38.7H79.14V27.6ZM68.42 20.18H70.74V22.86H68.42V20.18ZM68.42 28.3H70.74V38.76H68.42V28.3ZM74.82 21.58L77.62 22.38C77.6067 22.5533 77.44 22.6667 77.12 22.72V28.6C77.12 29.3467 77.08 30.1667 77 31.06C76.9333 31.94 76.7933 32.8467 76.58 33.78C76.3667 34.7 76.0533 35.5933 75.64 36.46C75.2267 37.3267 74.68 38.12 74 38.84C73.9067 38.6533 73.7533 38.4533 73.54 38.24C73.34 38.0267 73.1267 37.82 72.9 37.62C72.6867 37.4333 72.48 37.2933 72.28 37.2C72.8667 36.5867 73.3267 35.9267 73.66 35.22C74.0067 34.5 74.26 33.76 74.42 33C74.5933 32.24 74.7 31.4867 74.74 30.74C74.7933 29.98 74.82 29.2533 74.82 28.56V21.58ZM81.36 20.22L83.28 21.96C82.6 22.2667 81.86 22.5467 81.06 22.8C80.26 23.0533 79.44 23.28 78.6 23.48C77.7733 23.6667 76.9733 23.8333 76.2 23.98C76.1333 23.7267 76.0267 23.42 75.88 23.06C75.7333 22.7 75.5867 22.4 75.44 22.16C76.16 22 76.8867 21.82 77.62 21.62C78.3533 21.4067 79.04 21.18 79.68 20.94C80.3333 20.7 80.8933 20.46 81.36 20.22ZM70.58 32.06C70.7267 32.14 70.94 32.2867 71.22 32.5C71.5133 32.7133 71.82 32.9467 72.14 33.2C72.46 33.44 72.7467 33.6667 73 33.88C73.2667 34.08 73.4667 34.2267 73.6 34.32L72.2 36.04C72.04 35.8533 71.8333 35.6267 71.58 35.36C71.34 35.08 71.0733 34.8 70.78 34.52C70.5 34.24 70.2267 33.9733 69.96 33.72C69.6933 33.4667 69.4667 33.26 69.28 33.1L70.58 32.06ZM66.06 24.24L67.92 23.8C68.0933 24.16 68.2467 24.5667 68.38 25.02C68.5133 25.46 68.6 25.84 68.64 26.16L66.7 26.7C66.6733 26.3667 66.6 25.9733 66.48 25.52C66.3733 25.0533 66.2333 24.6267 66.06 24.24ZM71.04 23.76L73.18 24.18C72.9933 24.6333 72.8133 25.0733 72.64 25.5C72.4667 25.9133 72.3067 26.2667 72.16 26.56L70.24 26.16C70.3333 25.9333 70.4333 25.68 70.54 25.4C70.6467 25.12 70.7467 24.84 70.84 24.56C70.9333 24.2667 71 24 71.04 23.76ZM68.44 31.12L70.12 31.76C69.8 32.48 69.4133 33.2067 68.96 33.94C68.5067 34.66 68.0133 35.3333 67.48 35.96C66.9467 36.5867 66.4133 37.1133 65.88 37.54C65.7067 37.2867 65.4667 36.9933 65.16 36.66C64.8533 36.3133 64.5733 36.04 64.32 35.84C64.84 35.5067 65.36 35.0867 65.88 34.58C66.4 34.06 66.88 33.5067 67.32 32.92C67.7733 32.32 68.1467 31.72 68.44 31.12ZM85.1 23.08H92.46V25.2H85.1V23.08ZM84.78 27.72H92.76V29.9H84.78V27.72ZM87.7 20.2H89.94V27.44C89.94 28.3733 89.8933 29.3467 89.8 30.36C89.72 31.3733 89.5467 32.38 89.28 33.38C89.0267 34.3667 88.6467 35.3 88.14 36.18C87.6467 37.06 86.98 37.8467 86.14 38.54C86.0333 38.38 85.8867 38.1867 85.7 37.96C85.5133 37.7467 85.3133 37.5333 85.1 37.32C84.8867 37.12 84.6867 36.9533 84.5 36.82C85.2467 36.2733 85.8333 35.62 86.26 34.86C86.7 34.1 87.02 33.2933 87.22 32.44C87.42 31.5867 87.5467 30.7333 87.6 29.88C87.6667 29.0133 87.7 28.2 87.7 27.44V20.2ZM89.62 30.22C89.7667 30.34 89.96 30.5333 90.2 30.8C90.44 31.0533 90.7 31.34 90.98 31.66C91.26 31.98 91.54 32.3 91.82 32.62C92.1 32.94 92.3533 33.2267 92.58 33.48C92.8067 33.7333 92.9667 33.92 93.06 34.04L91.44 35.76C91.24 35.4533 91 35.1 90.72 34.7C90.44 34.3 90.14 33.8933 89.82 33.48C89.5133 33.0533 89.2133 32.6533 88.92 32.28C88.6267 31.9067 88.3733 31.5933 88.16 31.34L89.62 30.22ZM95.6 25.9V27.08H99.98V25.9H95.6ZM95.6 28.96V30.16H99.98V28.96H95.6ZM95.6 22.84V24H99.98V22.84H95.6ZM93.38 20.72H102.3V32.28H93.38V20.72ZM97.94 31.52H100.16V35.72C100.16 35.9867 100.18 36.1533 100.22 36.22C100.26 36.2867 100.353 36.32 100.5 36.32C100.527 36.32 100.587 36.32 100.68 36.32C100.773 36.32 100.867 36.32 100.96 36.32C101.067 36.32 101.14 36.32 101.18 36.32C101.3 36.32 101.387 36.2733 101.44 36.18C101.493 36.0733 101.533 35.8533 101.56 35.52C101.587 35.1733 101.607 34.64 101.62 33.92C101.767 34.04 101.953 34.16 102.18 34.28C102.42 34.4 102.667 34.5067 102.92 34.6C103.187 34.68 103.413 34.7533 103.6 34.82C103.533 35.7667 103.42 36.5 103.26 37.02C103.1 37.54 102.873 37.9 102.58 38.1C102.287 38.3 101.9 38.4 101.42 38.4C101.34 38.4 101.24 38.4 101.12 38.4C101 38.4 100.873 38.4 100.74 38.4C100.62 38.4 100.5 38.4 100.38 38.4C100.273 38.4 100.18 38.4 100.1 38.4C99.5133 38.4 99.06 38.3133 98.74 38.14C98.42 37.98 98.2067 37.7 98.1 37.3C97.9933 36.9133 97.94 36.3933 97.94 35.74V31.52ZM94.7 31.92H96.96C96.8667 32.7067 96.7333 33.4467 96.56 34.14C96.4 34.82 96.1467 35.4467 95.8 36.02C95.4533 36.5933 94.9867 37.1133 94.4 37.58C93.8133 38.06 93.06 38.4667 92.14 38.8C92.02 38.5333 91.8267 38.22 91.56 37.86C91.3067 37.5 91.06 37.22 90.82 37.02C91.86 36.6733 92.64 36.2533 93.16 35.76C93.6933 35.2533 94.06 34.68 94.26 34.04C94.4733 33.4 94.62 32.6933 94.7 31.92ZM113.86 23.28H123.44V25.56H112.72L113.86 23.28ZM116.48 27.66H122.94V29.86H116.48V27.66ZM116.46 32.1H123.2V34.34H116.46V32.1ZM115.26 24.04H117.74V38.78H115.26V24.04ZM114.32 20.2L116.62 20.8C116.247 21.88 115.807 22.9533 115.3 24.02C114.807 25.0867 114.267 26.0867 113.68 27.02C113.093 27.94 112.493 28.7533 111.88 29.46C111.76 29.3 111.587 29.1133 111.36 28.9C111.133 28.6867 110.9 28.48 110.66 28.28C110.433 28.0667 110.227 27.9 110.04 27.78C110.64 27.18 111.2 26.4733 111.72 25.66C112.253 24.8467 112.74 23.9733 113.18 23.04C113.633 22.0933 114.013 21.1467 114.32 20.2ZM109.02 20.08L111.34 20.82C110.913 21.9533 110.407 23.0933 109.82 24.24C109.233 25.3867 108.593 26.4733 107.9 27.5C107.207 28.5133 106.493 29.4 105.76 30.16C105.68 29.96 105.56 29.7 105.4 29.38C105.253 29.06 105.093 28.7333 104.92 28.4C104.747 28.0667 104.587 27.8 104.44 27.6C105.053 26.9867 105.64 26.28 106.2 25.48C106.773 24.68 107.3 23.82 107.78 22.9C108.273 21.98 108.687 21.04 109.02 20.08ZM107 25.62L109.42 23.2V23.22V38.76H107V25.62ZM127.64 27.54H132.26V29.72H127.64V27.54ZM131.34 27.54H133.66C133.66 27.54 133.66 27.5933 133.66 27.7C133.66 27.8067 133.66 27.9333 133.66 28.08C133.66 28.2133 133.66 28.3267 133.66 28.42C133.633 29.8333 133.6 30.9933 133.56 31.9C133.52 32.7933 133.453 33.4933 133.36 34C133.28 34.4933 133.167 34.84 133.02 35.04C132.82 35.2933 132.607 35.4733 132.38 35.58C132.167 35.6867 131.913 35.7667 131.62 35.82C131.353 35.8733 131.013 35.9067 130.6 35.92C130.2 35.92 129.76 35.9133 129.28 35.9C129.267 35.5533 129.2 35.1667 129.08 34.74C128.96 34.3133 128.813 33.9533 128.64 33.66C129 33.6867 129.333 33.7067 129.64 33.72C129.96 33.7333 130.2 33.74 130.36 33.74C130.493 33.74 130.607 33.7267 130.7 33.7C130.807 33.66 130.893 33.5933 130.96 33.5C131.053 33.38 131.12 33.1333 131.16 32.76C131.213 32.3733 131.253 31.7933 131.28 31.02C131.307 30.2333 131.327 29.1933 131.34 27.9V27.54ZM137.34 21.26L138.8 19.82C139.173 20.0067 139.567 20.2267 139.98 20.48C140.393 20.7333 140.787 20.9867 141.16 21.24C141.547 21.4933 141.86 21.74 142.1 21.98L140.56 23.58C140.333 23.3533 140.04 23.1 139.68 22.82C139.32 22.54 138.933 22.2667 138.52 22C138.107 21.72 137.713 21.4733 137.34 21.26ZM139.7 26.42L142.14 27C141.3 29.6 140.153 31.9 138.7 33.9C137.247 35.8867 135.527 37.4933 133.54 38.72C133.433 38.5467 133.273 38.3333 133.06 38.08C132.847 37.84 132.627 37.5933 132.4 37.34C132.173 37.1 131.973 36.9 131.8 36.74C133.72 35.7 135.347 34.3 136.68 32.54C138.013 30.7667 139.02 28.7267 139.7 26.42ZM127.76 23H143.2V25.36H127.76V23ZM126.16 23H128.68V28.9C128.68 29.6467 128.653 30.4667 128.6 31.36C128.547 32.24 128.447 33.1467 128.3 34.08C128.153 35 127.933 35.8867 127.64 36.74C127.36 37.5933 126.993 38.36 126.54 39.04C126.407 38.8667 126.207 38.6733 125.94 38.46C125.687 38.2467 125.427 38.0333 125.16 37.82C124.907 37.62 124.687 37.48 124.5 37.4C125.007 36.6 125.373 35.7067 125.6 34.72C125.84 33.72 125.993 32.7133 126.06 31.7C126.127 30.6867 126.16 29.7467 126.16 28.88V23ZM134.28 20.02H136.8C136.773 21.66 136.82 23.2667 136.94 24.84C137.06 26.4133 137.233 27.8867 137.46 29.26C137.7 30.62 137.98 31.8267 138.3 32.88C138.62 33.92 138.973 34.7333 139.36 35.32C139.747 35.9067 140.14 36.2 140.54 36.2C140.767 36.2 140.94 35.9267 141.06 35.38C141.193 34.8333 141.287 33.9333 141.34 32.68C141.62 32.9467 141.947 33.2067 142.32 33.46C142.707 33.7133 143.06 33.9 143.38 34.02C143.26 35.26 143.08 36.22 142.84 36.9C142.6 37.5667 142.28 38.0267 141.88 38.28C141.48 38.5333 140.967 38.66 140.34 38.66C139.62 38.66 138.967 38.4133 138.38 37.92C137.807 37.4267 137.293 36.74 136.84 35.86C136.4 34.98 136.02 33.9467 135.7 32.76C135.38 31.5733 135.113 30.2867 134.9 28.9C134.7 27.5133 134.547 26.0733 134.44 24.58C134.347 23.0733 134.293 21.5533 134.28 20.02Z" fill="white"/>
</g>
<defs>
<filter id="filter0_d_112_53" x="0" y="0" width="208" height="68" filterUnits="userSpaceOnUse" color-interpolation-filters="sRGB">
<feFlood flood-opacity="0" result="BackgroundImageFix"/>
<feColorMatrix in="SourceAlpha" type="matrix" values="0 0 0 0 0 0 0 0 0 0 0 0 0 0 0 0 0 0 127 0" result="hardAlpha"/>
<feOffset dy="4"/>
<feGaussianBlur stdDeviation="2"/>
<feComposite in2="hardAlpha" operator="out"/>
<feColorMatrix type="matrix" values="0 0 0 0 0 0 0 0 0 0 0 0 0 0 0 0 0 0 0.25 0"/>
<feBlend mode="normal" in2="BackgroundImageFix" result="effect1_dropShadow_112_53"/>
<feBlend mode="normal" in="SourceGraphic" in2="effect1_dropShadow_112_53" result="shape"/>
</filter>
</defs>
</svg>
