<svg width="20" height="20" viewBox="0 0 20 20" fill="none" xmlns="http://www.w3.org/2000/svg">
<path d="M10 19.9297C8.67188 19.9297 7.42839 19.679 6.26953 19.1777C5.11719 18.6829 4.09831 17.9928 3.21289 17.1074C2.33398 16.2285 1.64388 15.2129 1.14258 14.0605C0.647786 12.9017 0.400391 11.6582 0.400391 10.3301C0.400391 9.00195 0.647786 7.75846 1.14258 6.59961C1.64388 5.44076 2.33398 4.42188 3.21289 3.54297C4.09831 2.66406 5.11719 1.97721 6.26953 1.48242C7.42839 0.98112 8.67188 0.730469 10 0.730469C11.3281 0.730469 12.5716 0.98112 13.7305 1.48242C14.8893 1.97721 15.9082 2.66406 16.7871 3.54297C17.666 4.42188 18.3529 5.44076 18.8477 6.59961C19.349 7.75846 19.5996 9.00195 19.5996 10.3301C19.5996 11.6582 19.349 12.9017 18.8477 14.0605C18.3529 15.2129 17.666 16.2285 16.7871 17.1074C15.9082 17.9928 14.8893 18.6829 13.7305 19.1777C12.5716 19.679 11.3281 19.9297 10 19.9297ZM10 17.9082C11.0482 17.9082 12.028 17.7096 12.9395 17.3125C13.8574 16.9219 14.6647 16.3815 15.3613 15.6914C16.0579 14.9948 16.6016 14.1908 16.9922 13.2793C17.3828 12.3613 17.5781 11.3783 17.5781 10.3301C17.5781 9.2819 17.3828 8.30208 16.9922 7.39062C16.6016 6.47266 16.0579 5.66862 15.3613 4.97852C14.6647 4.2819 13.8574 3.73828 12.9395 3.34766C12.028 2.95052 11.0482 2.75195 10 2.75195C8.95182 2.75195 7.96875 2.95052 7.05078 3.34766C6.13932 3.73828 5.33529 4.2819 4.63867 4.97852C3.94206 5.66862 3.39844 6.47266 3.00781 7.39062C2.61719 8.30208 2.42188 9.2819 2.42188 10.3301C2.42188 11.3783 2.61719 12.3613 3.00781 13.2793C3.39844 14.1908 3.94206 14.9948 4.63867 15.6914C5.33529 16.3815 6.13932 16.9219 7.05078 17.3125C7.96875 17.7096 8.95182 17.9082 10 17.9082ZM6.54297 11.248C6.25651 11.248 6.01888 11.1699 5.83008 11.0137C5.64779 10.8509 5.55664 10.6296 5.55664 10.3496C5.55664 10.0697 5.64453 9.84831 5.82031 9.68555C6.0026 9.52279 6.24349 9.44141 6.54297 9.44141H13.4375C13.737 9.44141 13.9746 9.52279 14.1504 9.68555C14.3262 9.84831 14.4141 10.0697 14.4141 10.3496C14.4141 10.6296 14.3229 10.8509 14.1406 11.0137C13.9583 11.1699 13.724 11.248 13.4375 11.248H6.54297Z" fill="#DF5C44"/>
</svg>
