<svg width="200" height="60" viewBox="0 0 200 60" fill="none" xmlns="http://www.w3.org/2000/svg">
<rect width="200" height="60" rx="16" fill="#443322"/>
<path d="M91.76 22.44H94.1V33.68H91.76V22.44ZM96.2 20.38H98.58V35.86C98.58 36.5667 98.4933 37.1 98.32 37.46C98.16 37.8333 97.8733 38.12 97.46 38.32C97.0467 38.5067 96.5067 38.6267 95.84 38.68C95.1733 38.7467 94.38 38.78 93.46 38.78C93.42 38.5533 93.3533 38.2867 93.26 37.98C93.18 37.6867 93.08 37.3867 92.96 37.08C92.8533 36.7867 92.74 36.5267 92.62 36.3C93.2733 36.3267 93.8867 36.3467 94.46 36.36C95.0467 36.36 95.4467 36.36 95.66 36.36C95.8467 36.3467 95.98 36.3067 96.06 36.24C96.1533 36.16 96.2 36.0267 96.2 35.84V20.38ZM82.32 32.28H89.86V34.3H82.32V32.28ZM82.32 28.98H89.86V31H82.32V28.98ZM84.62 19.98H87V27.04H84.62V19.98ZM87.9 25.48H90.22V36C90.22 36.5467 90.1533 36.9867 90.02 37.32C89.9 37.6533 89.66 37.92 89.3 38.12C88.9533 38.2933 88.5333 38.4 88.04 38.44C87.5467 38.4933 86.9467 38.5133 86.24 38.5C86.2133 38.1933 86.1333 37.82 86 37.38C85.88 36.9533 85.7467 36.5867 85.6 36.28C86 36.2933 86.3867 36.3067 86.76 36.32C87.1467 36.32 87.4067 36.32 87.54 36.32C87.6733 36.3067 87.7667 36.28 87.82 36.24C87.8733 36.1867 87.9 36.0933 87.9 35.96V25.48ZM80.74 21.44L82.7 20.78C82.9 21.1667 83.0867 21.5867 83.26 22.04C83.4333 22.4933 83.5867 22.94 83.72 23.38C83.8667 23.8067 83.98 24.1933 84.06 24.54L81.96 25.32C81.9067 24.9733 81.8133 24.5733 81.68 24.12C81.56 23.6667 81.4133 23.2067 81.24 22.74C81.08 22.2733 80.9133 21.84 80.74 21.44ZM88.8 20.6L91.2 21.14C90.9333 21.8733 90.6533 22.6067 90.36 23.34C90.0667 24.0733 89.7933 24.6933 89.54 25.2L87.54 24.7C87.7 24.3267 87.86 23.9067 88.02 23.44C88.18 22.96 88.3267 22.4733 88.46 21.98C88.6067 21.4867 88.72 21.0267 88.8 20.6ZM81.5 25.48H89.1V27.72H83.78V38.56H81.5V25.48ZM109.24 25.78H117.04V27.76H109.24V25.78ZM108.04 29.58H118.5V31.6H108.04V29.58ZM113.06 22.16C112.7 22.7467 112.24 23.3533 111.68 23.98C111.133 24.6067 110.527 25.2067 109.86 25.78C109.207 26.3533 108.52 26.8533 107.8 27.28C107.68 26.9867 107.5 26.6533 107.26 26.28C107.033 25.9067 106.82 25.6 106.62 25.36C107.353 24.96 108.053 24.46 108.72 23.86C109.4 23.26 110.02 22.6267 110.58 21.96C111.14 21.2933 111.593 20.6533 111.94 20.04H114.04C114.52 20.7333 115.067 21.4067 115.68 22.06C116.293 22.7133 116.94 23.3133 117.62 23.86C118.313 24.4067 119 24.8467 119.68 25.18C119.467 25.4467 119.24 25.7733 119 26.16C118.76 26.5333 118.56 26.8867 118.4 27.22C117.747 26.8333 117.08 26.36 116.4 25.8C115.733 25.2267 115.113 24.6267 114.54 24C113.967 23.36 113.473 22.7467 113.06 22.16ZM111.98 26.82H114.24V36.32C114.24 36.8533 114.187 37.28 114.08 37.6C113.973 37.9333 113.747 38.1933 113.4 38.38C113.08 38.5533 112.693 38.6667 112.24 38.72C111.787 38.7733 111.26 38.8 110.66 38.8C110.607 38.4933 110.507 38.12 110.36 37.68C110.213 37.2533 110.06 36.8867 109.9 36.58C110.287 36.5933 110.647 36.6 110.98 36.6C111.313 36.6 111.54 36.6 111.66 36.6C111.78 36.5867 111.86 36.56 111.9 36.52C111.953 36.48 111.98 36.4067 111.98 36.3V26.82ZM108.8 32.36L110.9 32.86C110.58 33.7933 110.16 34.6933 109.64 35.56C109.12 36.4267 108.573 37.1467 108 37.72C107.88 37.6 107.713 37.4533 107.5 37.28C107.3 37.1067 107.093 36.9333 106.88 36.76C106.667 36.5867 106.473 36.4533 106.3 36.36C106.847 35.8667 107.333 35.2667 107.76 34.56C108.2 33.8533 108.547 33.12 108.8 32.36ZM114.9 33.12L116.74 32.26C117.087 32.7133 117.427 33.2 117.76 33.72C118.107 34.24 118.413 34.76 118.68 35.28C118.96 35.7867 119.167 36.2467 119.3 36.66L117.32 37.64C117.213 37.24 117.027 36.78 116.76 36.26C116.493 35.74 116.2 35.2067 115.88 34.66C115.56 34.1 115.233 33.5867 114.9 33.12ZM101.42 20.86H106.14V23.02H103.52V38.8H101.42V20.86ZM105.42 20.86H105.8L106.14 20.78L107.7 21.68C107.54 22.24 107.36 22.8467 107.16 23.5C106.96 24.1533 106.753 24.7933 106.54 25.42C106.34 26.0467 106.147 26.62 105.96 27.14C106.573 27.9 106.973 28.62 107.16 29.3C107.347 29.98 107.44 30.6133 107.44 31.2C107.44 31.84 107.367 32.3733 107.22 32.8C107.087 33.2267 106.86 33.5533 106.54 33.78C106.38 33.8867 106.2 33.9733 106 34.04C105.813 34.1067 105.613 34.16 105.4 34.2C105.027 34.24 104.587 34.2533 104.08 34.24C104.067 33.96 104.013 33.62 103.92 33.22C103.84 32.82 103.72 32.48 103.56 32.2C103.747 32.2133 103.907 32.22 104.04 32.22C104.187 32.22 104.32 32.22 104.44 32.22C104.68 32.2067 104.867 32.1467 105 32.04C105.12 31.9467 105.2 31.8067 105.24 31.62C105.293 31.42 105.32 31.18 105.32 30.9C105.32 30.4333 105.227 29.9 105.04 29.3C104.867 28.7 104.5 28.0667 103.94 27.4C104.073 26.9467 104.207 26.4533 104.34 25.92C104.487 25.3733 104.627 24.8267 104.76 24.28C104.907 23.7333 105.033 23.2267 105.14 22.76C105.26 22.28 105.353 21.88 105.42 21.56V20.86Z" fill="white"/>
</svg>
