<svg width="200" height="60" viewBox="0 0 200 60" fill="none" xmlns="http://www.w3.org/2000/svg">
<rect width="200" height="60" rx="16" fill="#DF5C44"/>
<path d="M81.2 20.92H98.82V23.06H81.2V20.92ZM88.9 21.82H91.42V29.9C91.42 30.7133 91.34 31.4933 91.18 32.24C91.02 32.9867 90.74 33.6933 90.34 34.36C89.9533 35.0267 89.4133 35.64 88.72 36.2C88.04 36.76 87.1667 37.26 86.1 37.7C85.0333 38.14 83.7467 38.5133 82.24 38.82C82.1467 38.6333 82.0133 38.4067 81.84 38.14C81.68 37.8733 81.5067 37.6067 81.32 37.34C81.1333 37.0867 80.9533 36.8667 80.78 36.68C82.22 36.4667 83.4267 36.1933 84.4 35.86C85.3733 35.5267 86.16 35.1533 86.76 34.74C87.36 34.3133 87.8133 33.8467 88.12 33.34C88.4267 32.8333 88.6333 32.2933 88.74 31.72C88.8467 31.1333 88.9 30.52 88.9 29.88V21.82ZM85.22 29.26V30.56H95.18V29.26H85.22ZM85.22 26.16V27.46H95.18V26.16H85.22ZM82.94 24.22H97.56V32.5H82.94V24.22ZM85.32 32.4C86.0267 33.2933 86.8467 34 87.78 34.52C88.7267 35.04 89.7867 35.4267 90.96 35.68C92.1467 35.92 93.46 36.0733 94.9 36.14C96.3533 36.1933 97.9333 36.22 99.64 36.22C99.4267 36.4867 99.22 36.8467 99.02 37.3C98.82 37.7533 98.6867 38.18 98.62 38.58C96.86 38.5533 95.2133 38.4667 93.68 38.32C92.1467 38.1867 90.7333 37.9333 89.44 37.56C88.1467 37.2 86.98 36.6733 85.94 35.98C84.9 35.2867 84 34.3733 83.24 33.24L85.32 32.4ZM111.9 26.62H119.38V28.84H111.9V26.62ZM101.06 22H110.08V23.94H101.06V22ZM100.88 29.96H110.06V31.98H100.88V29.96ZM100.82 26.46H110.24V28.42H100.82V26.46ZM115.14 27.6H117.48V38.7H115.14V27.6ZM104.42 20.18H106.74V22.86H104.42V20.18ZM104.42 28.3H106.74V38.76H104.42V28.3ZM110.82 21.58L113.62 22.38C113.607 22.5533 113.44 22.6667 113.12 22.72V28.6C113.12 29.3467 113.08 30.1667 113 31.06C112.933 31.94 112.793 32.8467 112.58 33.78C112.367 34.7 112.053 35.5933 111.64 36.46C111.227 37.3267 110.68 38.12 110 38.84C109.907 38.6533 109.753 38.4533 109.54 38.24C109.34 38.0267 109.127 37.82 108.9 37.62C108.687 37.4333 108.48 37.2933 108.28 37.2C108.867 36.5867 109.327 35.9267 109.66 35.22C110.007 34.5 110.26 33.76 110.42 33C110.593 32.24 110.7 31.4867 110.74 30.74C110.793 29.98 110.82 29.2533 110.82 28.56V21.58ZM117.36 20.22L119.28 21.96C118.6 22.2667 117.86 22.5467 117.06 22.8C116.26 23.0533 115.44 23.28 114.6 23.48C113.773 23.6667 112.973 23.8333 112.2 23.98C112.133 23.7267 112.027 23.42 111.88 23.06C111.733 22.7 111.587 22.4 111.44 22.16C112.16 22 112.887 21.82 113.62 21.62C114.353 21.4067 115.04 21.18 115.68 20.94C116.333 20.7 116.893 20.46 117.36 20.22ZM106.58 32.06C106.727 32.14 106.94 32.2867 107.22 32.5C107.513 32.7133 107.82 32.9467 108.14 33.2C108.46 33.44 108.747 33.6667 109 33.88C109.267 34.08 109.467 34.2267 109.6 34.32L108.2 36.04C108.04 35.8533 107.833 35.6267 107.58 35.36C107.34 35.08 107.073 34.8 106.78 34.52C106.5 34.24 106.227 33.9733 105.96 33.72C105.693 33.4667 105.467 33.26 105.28 33.1L106.58 32.06ZM102.06 24.24L103.92 23.8C104.093 24.16 104.247 24.5667 104.38 25.02C104.513 25.46 104.6 25.84 104.64 26.16L102.7 26.7C102.673 26.3667 102.6 25.9733 102.48 25.52C102.373 25.0533 102.233 24.6267 102.06 24.24ZM107.04 23.76L109.18 24.18C108.993 24.6333 108.813 25.0733 108.64 25.5C108.467 25.9133 108.307 26.2667 108.16 26.56L106.24 26.16C106.333 25.9333 106.433 25.68 106.54 25.4C106.647 25.12 106.747 24.84 106.84 24.56C106.933 24.2667 107 24 107.04 23.76ZM104.44 31.12L106.12 31.76C105.8 32.48 105.413 33.2067 104.96 33.94C104.507 34.66 104.013 35.3333 103.48 35.96C102.947 36.5867 102.413 37.1133 101.88 37.54C101.707 37.2867 101.467 36.9933 101.16 36.66C100.853 36.3133 100.573 36.04 100.32 35.84C100.84 35.5067 101.36 35.0867 101.88 34.58C102.4 34.06 102.88 33.5067 103.32 32.92C103.773 32.32 104.147 31.72 104.44 31.12Z" fill="white"/>
</svg>
