<svg width="140" height="40" viewBox="0 0 140 40" fill="none" xmlns="http://www.w3.org/2000/svg">
<rect x="1" y="1" width="138" height="38" rx="15" fill="white" stroke="#DF5C44" stroke-width="2"/>
<path d="M60.1914 20.5391C60.1914 20.1797 60.3203 19.8711 60.5781 19.6133C60.8359 19.3477 61.1445 19.2148 61.5039 19.2148H68.6875V12.043C68.6875 11.6836 68.8164 11.375 69.0742 11.1172C69.332 10.8594 69.6406 10.7305 70 10.7305C70.3672 10.7305 70.6797 10.8594 70.9375 11.1172C71.1953 11.375 71.3242 11.6836 71.3242 12.043V19.2148H78.4961C78.8555 19.2148 79.1641 19.3477 79.4219 19.6133C79.6797 19.8711 79.8086 20.1797 79.8086 20.5391C79.8086 20.9062 79.6797 21.2188 79.4219 21.4766C79.1641 21.7266 78.8555 21.8516 78.4961 21.8516H71.3242V29.0469C71.3242 29.3984 71.1953 29.7031 70.9375 29.9609C70.6797 30.2188 70.3672 30.3477 70 30.3477C69.6406 30.3477 69.332 30.2188 69.0742 29.9609C68.8164 29.7031 68.6875 29.3984 68.6875 29.0469V21.8516H61.5039C61.1445 21.8516 60.8359 21.7266 60.5781 21.4766C60.3203 21.2188 60.1914 20.9062 60.1914 20.5391Z" fill="#DF5C44"/>
</svg>
